<?xml version="1.0" encoding="utf-8"?>
<!-- Generator: Adobe Illustrator 19.0.0, SVG Export Plug-In . SVG Version: 6.00 Build 0)  -->
<svg version="1.1" id="Layer_1" xmlns="http://www.w3.org/2000/svg" xmlns:xlink="http://www.w3.org/1999/xlink" x="0px" y="0px"
	 viewBox="344.8 79.8 1461.1 240" style="enable-background:new 344.8 79.8 1461.1 240;" xml:space="preserve">
<style type="text/css">
	.st0{fill:#FF2645;}
</style>
<path class="st0" d="M367,202.3c0-31.2,0-62.3,0-93.5c0-0.9,0-1.7,0-2.6c0-0.7,0.3-0.9,1.1-1c0.6,0,1.1,0,1.7,0
	c25.6,0,51.3,0,76.9,0c1.4,0,2.8,0,4.3,0.1c1,0,2,0.2,3.1,0.3c0.4,0,0.8,0.1,1.2,0.1c6.6,0.6,13,2.2,19.2,4.8
	c12.1,5.1,21.4,13.5,27.8,25c3.6,6.5,6,13.4,7.2,20.7c1,5.6,1.2,11.3,1,17c-0.4,7.6-1.9,15-4.8,22.1c-6.5,15.6-17.6,26.5-33.4,32.5
	c-2.6,1-5.2,1.8-7.9,2.4c-0.5,0.1-1,0.3-1.6,0.5c-0.2,0.1-0.3,0.5-0.2,0.6c0.4,0.7,0.8,1.3,1.3,2c4.1,5.9,8.2,11.8,12.3,17.7
	c10.7,15.3,21.4,30.6,32.1,46c0.5,0.6,0.9,1.3,1.3,2c0.2,0.3-0.1,0.7-0.4,0.7c-0.5,0-0.9,0.1-1.4,0.1c-14.8,0-29.7,0-44.5,0
	c-0.3,0-0.6,0-0.9,0c-0.8,0-1.4-0.2-1.8-0.9c-0.3-0.5-0.6-0.9-0.9-1.4c-13.4-20.7-26.8-41.5-40.1-62.2c-0.5-0.7-1-1.4-1.4-2.2
	c-0.2-0.3-0.6-0.5-1-0.6c-0.3,0-0.6-0.1-0.9-0.1c-2.1,0-4.1,0-6.2,0c-0.4,0-0.8,0.1-1.2,0.1c-0.2,0-0.6,0.4-0.6,0.6
	c0,0.3-0.1,0.6-0.1,0.9c0,0.8,0,1.6,0,2.4c0,20,0,39.9,0,59.9c0,0.9,0,1.7-0.1,2.6c0,0.3-0.3,0.6-0.6,0.6c-0.2,0-0.5,0.1-0.7,0.1
	c-0.3,0-0.6,0-0.9,0c-12.1,0-24.1,0-36.2,0c-0.5,0-1.1,0-1.6-0.1c-0.4,0-0.7-0.4-0.7-0.8c0-0.9,0-1.7,0-2.6
	C367,264.8,367,233.6,367,202.3z M408,168.9c0,8.1,0,16.3,0,24.4c0,0.8,0,1.6,0.1,2.4c0,0.4,0.4,0.7,0.8,0.8
	c0.9,0.1,1.7,0.1,2.6,0.1c9.6,0,19.3,0,28.9,0c1.9,0,3.8-0.1,5.7-0.3c1.4-0.1,2.8-0.4,4.2-0.8c4.6-1.4,8.3-4.1,11.3-7.8
	c4.1-5.3,6.1-11.3,6.4-17.9c0.1-1.8-0.1-3.6-0.4-5.4c-0.6-3.7-1.7-7.2-3.5-10.5c-1.6-2.9-3.6-5.5-6.2-7.7c-2.7-2.2-5.7-3.7-9.1-4.4
	c-1.8-0.4-3.6-0.5-5.4-0.5c-10.7,0-21.5,0-32.2,0c-0.5,0-0.9,0-1.4,0c-1.4,0.1-1.7,0.3-1.7,1.6c0,0.7,0,1.4,0,2.1
	C408,152.9,408,160.9,408,168.9z"/>
<path class="st0" d="M1094.2,242.8c5.8,0,11.5,0,17.3,0c0.8,0,1.6,0.1,2.4,0.1c0.3,0,0.6,0.3,0.7,0.6c0.1,0.4,0.2,0.8,0.3,1.1
	c1.1,7.9,5.3,13.7,12.1,17.6c2.5,1.4,5.2,2.3,7.9,3c4,0.9,8.1,1.2,12.2,0.9c4.3-0.3,8.4-1.1,12.4-2.8c1.9-0.8,3.7-1.8,5.3-3.1
	c3.9-3,6.5-6.9,7.4-11.7c0.4-1.9,0.3-3.8,0.2-5.7c-0.1-1.9-0.6-3.7-1.3-5.5c-0.8-1.8-2-3.4-3.4-4.8c-1.6-1.6-3.4-2.9-5.3-4
	c-3.1-1.8-6.4-3.1-9.7-4.3c-3.2-1.1-6.5-1.9-9.8-2.8c-5.7-1.6-11.4-3.1-17.1-4.8c-8.9-2.7-17.5-6.3-25.4-11.4
	c-4.8-3.1-9.2-6.7-12.9-11c-5.6-6.5-9.3-14-11-22.5c-0.8-3.9-1-7.8-1-11.8c0-8,1.7-15.7,5.1-22.9c3.8-8.1,9.4-14.7,16.5-20.1
	c6.5-5,13.8-8.5,21.6-10.9c3.2-1,6.4-1.7,9.7-2.2c1.9-0.3,3.7-0.6,5.6-0.7c1.3,0,2.5-0.3,3.8-0.3c2.8-0.1,5.7-0.1,8.5,0
	c1.3,0,2.5,0.3,3.8,0.3c1.9,0,3.8,0.4,5.6,0.7c4.4,0.7,8.6,1.7,12.8,3.2c6.8,2.4,13.1,5.7,18.8,10.3c8.9,7.3,14.8,16.5,17.9,27.5
	c1.1,3.9,1.8,7.8,2,11.9c0,0.7,0.1,1.4,0.2,2.1c0,0.6,0.1,1.3,0.1,1.9c0,0.7-0.4,1.1-1.2,1.2c-0.2,0-0.5,0-0.7,0c-0.5,0-0.9,0-1.4,0
	c-11.4,0-22.7,0-34.1,0c-0.9,0-1.7-0.1-2.6-0.1c-0.3,0-0.6-0.3-0.6-0.6c-0.1-0.5-0.1-1.1-0.2-1.6c-0.2-2.3-0.7-4.5-1.6-6.6
	c-1.7-4-4.4-7.1-8.1-9.3c-3-1.7-6.2-2.7-9.5-3.3c-2.4-0.4-4.7-0.5-7.1-0.4c-4,0.1-7.8,0.9-11.5,2.4c-2.2,0.9-4.2,2.1-6.1,3.6
	c-3.3,2.8-5.5,6.3-6.3,10.6c-0.8,4.6,0,8.9,2.9,12.8c1.3,1.8,3,3.3,4.8,4.5c2.6,1.8,5.4,3.2,8.4,4.3c2.3,0.8,4.6,1.5,7,2.3
	c8.5,2.7,17,5.4,25.4,8.1c6.5,2.1,12.9,4.7,18.9,8c4.9,2.7,9.5,5.9,13.6,9.7c5,4.6,8.9,10,11.7,16.2c1.9,4.2,3,8.6,3.7,13.2
	c0.7,4.7,0.5,9.4,0.3,14.2c-1.3,14.6-7.4,26.7-18.7,36.2c-5.3,4.4-11.1,7.7-17.5,10.3c-5.5,2.2-11.2,3.8-17,4.8
	c-2.4,0.4-4.8,0.7-7.3,1c-5,0.6-10.1,0.4-15.1,0.3c-0.9,0-1.7-0.2-2.6-0.3c-1.8-0.1-3.6-0.3-5.4-0.6c-12-1.7-23.1-5.7-32.9-12.8
	c-6.8-4.9-12.3-11.1-16.3-18.5c-3.2-5.8-5.2-12-6.2-18.5c-0.4-2.4-0.4-4.9-0.7-7.3c0-0.3,0-0.6,0.1-0.9c0-0.3,0.4-0.6,0.6-0.6
	c0.6-0.1,1.3-0.1,1.9-0.1c3.2,0,6.3,0,9.5,0C1088.5,242.8,1091.4,242.8,1094.2,242.8z"/>
<path class="st0" d="M1668,233.7c0,20.8,0,41.7,0,62.5c0,0.9,0,1.7-0.1,2.6c0,0.3-0.3,0.6-0.6,0.6c-0.2,0-0.5,0.1-0.7,0.1
	c-0.6,0-1.3,0-1.9,0c-10.6,0-21.1,0-31.7,0c-0.8,0-1.6,0-2.4-0.1c-0.5,0-0.9-0.4-0.9-0.9c0-0.6-0.1-1.3-0.1-1.9c0-2.7,0-5.4,0-8
	c0-0.6,0-1.1,0-1.7s0.1-1.3-0.5-1.7c-0.6,0.1-0.9,0.6-1.2,1.1c-2.6,3.3-5.9,5.9-9.5,8.1c-4.4,2.6-9.2,4.5-14.2,5.8
	c-2.7,0.7-5.4,1.2-8.1,1.5c-2.9,0.4-5.8,0.4-8.7,0.3c-2.2-0.1-4.4-0.4-6.6-0.7c-3.5-0.6-7-1.4-10.3-2.5c-18.4-6-32.8-19.3-40.3-36
	c-2.5-5.6-4.1-11.4-5.1-17.4c-0.9-5.6-1.1-11.2-0.8-16.7c1.1-15.8,6.6-29.8,17.3-41.6c7.4-8.1,16.2-13.9,26.5-17.8
	c3.9-1.5,8-2.5,12.1-3.2c2-0.3,4.1-0.5,6.1-0.7c3-0.2,6-0.2,9,0c5.9,0.5,11.5,1.8,16.9,4c2.9,1.2,5.7,2.7,8.3,4.5
	c2.7,1.9,5,4,7.1,6.5c0.4,0.5,0.8,1,1.2,1.4c0.1,0.1,0.3,0,0.4,0s0.2-0.1,0.2-0.1c0.1-0.5,0.2-1.1,0.2-1.6c0-2.8,0-5.7,0-8.5
	c0-0.6,0-1.3,0-1.9c0-0.3,0.1-0.6,0.1-0.9c0.1-0.4,0.4-0.8,0.8-0.8s0.8-0.1,1.2-0.1c11.4,0,22.9,0,34.3,0c2,0,2,0.1,2,2
	c0,0.6,0,1.3,0,1.9C1668,192.4,1668,213.1,1668,233.7z M1629.5,232.9c-0.1-1.6-0.1-3.8-0.6-5.9c-0.8-4.2-2.4-8.2-4.9-11.7
	c-5.6-7.7-13.3-11.8-22.6-13.1c-4.1-0.2-8.2-0.2-12.2,0.9c-5.7,1.5-10.7,4.2-15,8.1c-7.4,6.8-11,16.9-9.5,26.8c0.7,4.7,2.4,9,5,12.9
	c2.5,3.6,5.5,6.5,9.2,8.8c4.8,3,10,4.9,15.7,5.4c2.8,0.6,5.5,0.1,8.2-0.2c2.7-0.4,5.4-1.2,7.9-2.3c6.6-2.9,11.7-7.3,15.2-13.7
	C1628.4,244.1,1629.6,238.9,1629.5,232.9z"/>
<path class="st0" d="M909.5,233.7c0,20.8,0,41.7,0,62.5c0,0.9,0,1.7-0.1,2.6c0,0.3-0.3,0.6-0.6,0.6s-0.6,0.1-0.9,0.1
	c-0.9,0-1.7,0-2.6,0c-10.3,0-20.7,0-31,0c-0.8,0-1.6-0.1-2.4-0.1c-0.3,0-0.6-0.4-0.7-0.6c-0.1-0.6-0.1-1.3-0.1-1.9c0-3,0-6,0-9
	c0-0.6,0-1.3-0.1-1.9c0-0.2-0.1-0.3-0.1-0.5s-0.4-0.4-0.6-0.3c-0.2,0.2-0.5,0.4-0.7,0.7c-3.5,4.5-8.1,7.7-13.2,10.2
	c-4.9,2.4-10.1,4-15.5,5c-1.8,0.3-3.6,0.4-5.4,0.8c-2.9,0.1-5.8,0.2-8.7-0.2c-0.3,0-0.6-0.1-0.9-0.1c-4.3-0.3-8.6-1.2-12.7-2.5
	c-14.1-4.4-25.6-12.4-34.4-24.2c-5.5-7.4-9.2-15.6-11.3-24.5c-0.7-3.1-1.2-6.2-1.5-9.3c-0.4-3.9-0.5-7.9-0.3-11.8
	c0.9-14.5,5.4-27.6,14.6-39c7.8-9.7,17.6-16.6,29.2-21c3.9-1.5,8-2.5,12.1-3.2c2-0.3,4.1-0.5,6.1-0.7c3-0.2,6-0.2,9,0
	c5.3,0.5,10.4,1.6,15.4,3.4c3.2,1.2,6.2,2.7,9.1,4.6c3,2,5.6,4.3,7.9,7.1c0.4,0.5,0.8,0.9,1.3,1.4c0.1,0.1,0.3,0.1,0.4-0.1
	c0.1-0.2,0.2-0.4,0.2-0.6c0-0.7,0.1-1.4,0.1-2.1c0-2.9,0-5.8,0-8.8c0-2.2,0.1-2.3,2.3-2.3c11.4,0,22.7,0,34.1,0c2,0,2,0.1,2,2
	c0,0.7,0,1.4,0,2.1C909.5,192.6,909.5,213.1,909.5,233.7z M871,233.3c-0.1-1.8-0.2-4.1-0.7-6.5c-0.8-3.8-2.2-7.4-4.3-10.7
	c-5.6-8.3-13.6-12.6-23.4-14c-3.1-0.1-6.3-0.2-9.4,0.3c-6.2,1.1-11.7,3.6-16.5,7.7c-6.6,5.6-10.3,12.9-10.9,21.5
	c-0.3,4.5,0.4,8.8,2.1,13c2.5,6.3,6.7,11.2,12.4,14.8c4.8,3.1,10,5,15.7,5.4c2.8,0.5,5.5,0.2,8.2-0.2c3-0.4,6-1.3,8.8-2.6
	c7.3-3.4,12.6-8.7,15.7-16.2C870.3,242,871,238,871,233.3z"/>
<path class="st0" d="M650.3,275.9c-0.4,1-1,1.7-1.6,2.4c-4.5,5.9-10.1,10.6-16.6,14.2c-5.8,3.3-12,5.6-18.5,7.2
	c-3.1,0.8-6.2,1.4-9.3,1.7c-2.3,0.3-4.5,0.7-6.8,0.6c-0.6,0-1.3,0-1.9,0.1c-4,0.3-8,0.1-12.1-0.1c-1.4-0.1-2.8-0.3-4.2-0.5
	c-5.5-0.9-10.9-2.4-16.1-4.5c-18-7.4-32.3-22.4-38.1-42.6c-1.2-4.1-1.9-8.3-2.4-12.5c-0.5-4.5-0.6-9-0.3-13.5
	c0.9-13.9,5.1-26.6,13.7-37.7c6.4-8.3,14.5-14.6,24.1-19.1c4.7-2.2,9.7-3.8,14.8-4.9c2.5-0.5,5-0.8,7.5-1.2c0.5-0.1,1.1-0.1,1.7-0.1
	c1.1-0.1,2.2-0.1,3.3-0.2c2.3-0.2,4.6-0.2,6.9,0c0.7,0.1,1.4,0.1,2.1,0.2c7.1,0.4,13.9,2,20.4,4.6c6.4,2.5,12.3,6,17.6,10.5
	c9.1,7.7,15.5,17.3,19.5,28.6c1.6,4.7,2.8,9.5,3.4,14.5c0.5,3.8,0.8,7.7,0.8,11.6c0,1.2-0.1,2.4-0.1,3.5c-0.1,1.6-0.2,3.2-0.2,4.7
	c0,0.6-0.1,1.3-0.1,1.9c0,0.5-0.4,0.9-0.9,0.9c-0.3,0-0.6,0.1-0.9,0.1c-0.8,0-1.6,0-2.4,0c-29.5,0-59,0-88.5,0c-0.9,0-1.9,0-2.8,0.1
	c-0.5,0-0.8,0.5-0.7,1c0.7,4.2,2.6,7.9,5.5,11.1c1.9,2,4.1,3.7,6.5,5.1c3.4,1.9,7,3.2,10.8,4.1s7.6,1.1,11.5,1
	c5.3-0.1,10.3-1.3,15.1-3.3c4.1-1.8,7.7-4.2,10.8-7.6c0.3-0.3,0.5-0.6,0.8-0.8c0.2-0.2,0.6-0.2,0.9-0.1c0.6,0.4,1.2,0.8,1.8,1.2
	c3.4,2.3,6.8,4.6,10.2,6.9c4.6,3.1,9.1,6.2,13.7,9.4C649.1,274.8,649.8,275.1,650.3,275.9z M590.2,222.2c8.4,0,16.9,0,25.3,0
	c0.7,0,1.4,0,2.1,0c0.2,0,0.5,0,0.7-0.1s0.3-0.3,0.4-0.5c0.1-0.1,0-0.3,0-0.5c-0.8-5.3-3-9.9-6.9-13.7c-4.9-4.8-11-7.2-17.7-8
	c-2.9-0.1-5.8-0.2-8.7,0.4c-3.9,0.7-7.6,2-11,4c-6.3,3.7-10.3,9.1-12.3,16.1c-0.1,0.5-0.2,1.1-0.3,1.6c0,0.3,0.3,0.7,0.5,0.7
	c0.8,0,1.6,0.1,2.4,0.1C573.2,222.2,581.7,222.2,590.2,222.2z"/>
<path class="st0" d="M1297.8,301.7c-2.2-0.1-4.2-0.1-6.2-0.2c-1.6-0.1-3.3-0.3-4.9-0.6c-3.9-0.6-7.7-1.5-11.5-2.7
	c-14.7-4.9-26.4-13.6-34.8-26.6c-4.3-6.6-7.2-13.8-8.9-21.5c-0.7-3.2-1.2-6.3-1.5-9.6c-0.4-3.6-0.4-7.2-0.3-10.9
	c0.1-2.6,0.4-5.2,0.8-7.8c0.6-4.2,1.6-8.4,2.9-12.4c6-17.8,19.1-31.8,36.5-39c4.7-1.9,9.5-3.4,14.5-4.2c2.6-0.5,5.3-0.9,8-1
	c1.9-0.1,3.8-0.4,5.7-0.3c1,0.1,2,0.1,3.1,0.2c0.7,0,1.4,0.1,2.1,0.2c8.4,0.5,16.5,2.6,24.2,6c7.6,3.4,14.3,8.1,20,14
	c7,7.2,11.9,15.6,15,25.2c1.3,4.1,2.2,8.2,2.8,12.4c0.7,5.2,0.8,10.4,0.5,15.6c-0.6,9.3-2.8,18.2-7,26.6c-6,12-14.9,21.3-26.5,27.8
	c-6.2,3.4-12.7,5.8-19.6,7.2c-2.7,0.6-5.4,0.9-8.2,1.2C1302.2,301.7,1299.9,301.7,1297.8,301.7z M1327.8,233.4
	c0-1.9-0.1-3.8-0.4-5.7c-0.8-4.9-2.7-9.4-5.8-13.3c-5.7-7.2-13.4-10.7-22.5-11.3c-1.9-0.1-3.8,0.1-5.7,0.3
	c-4.5,0.6-8.6,2.1-12.3,4.6c-8.4,5.6-12.5,13.7-13.1,23.7c-0.2,3.2,0.2,6.5,0.9,9.6c1.5,6.2,4.7,11.5,9.6,15.6
	c5.7,4.7,12.4,6.7,19.7,6.8c0.9,0,1.9-0.2,2.8-0.3c2.5-0.1,4.8-0.7,7.1-1.5c7.1-2.5,12.5-7,16-13.6
	C1326.7,243.7,1327.8,238.7,1327.8,233.4z"/>
<path class="st0" d="M1383.2,233.7c0-20.8,0-41.7,0-62.5c0-0.9,0-1.7,0.1-2.6c0-0.4,0.4-0.7,0.8-0.8c0.6,0,1.1,0,1.7,0
	c11.2,0,22.4,0,33.6,0c0.1,0,0.2,0,0.2,0c2.3,0,2.3,0.1,2.4,2.4c0,4.6,0,9.2,0,13.7c0,0.7-0.1,1.4,0.2,2.1c0.1,0.2,0.2,0.2,0.4,0.1
	c0.1-0.1,0.3-0.2,0.3-0.3c0.2-0.3,0.3-0.5,0.5-0.8c4.2-6.8,10.1-11.8,17.2-15.4c3.8-1.9,7.8-3.2,12.1-4c2.5-0.4,5-0.7,7.5-0.7
	c1.1,0,2.2,0.1,3.3,0.2c0.8,0,1.6,0.1,2.4,0.2c6,0.4,11.8,1.9,17.3,4.5c7.6,3.7,13.4,9.4,17.5,16.7c2.4,4.3,4.1,8.9,5.2,13.7
	c0.7,2.9,1.2,5.9,1.6,8.8c0.5,4.3,0.7,8.6,0.7,13c0,24.7,0,49.4,0,74.1c0,0.9-0.1,1.7-0.1,2.6c0,0.3-0.4,0.6-0.6,0.7
	c-0.2,0-0.5,0.1-0.7,0.1c-0.6,0-1.3,0-1.9,0c-10.7,0-21.5,0-32.2,0c-0.8,0-1.6,0-2.4-0.1c-0.4,0-0.7-0.4-0.8-0.8
	c0-0.3-0.1-0.6-0.1-0.9c0-0.8,0-1.6,0-2.4c0-20.9,0-41.8,0-62.7c0-2.2-0.1-4.4-0.2-6.6c-0.1-3.3-0.8-6.4-2-9.4
	c-0.6-1.5-1.3-2.9-2.1-4.2c-3-4.6-7.1-7.5-12.4-8.8c-2.8-0.7-5.6-0.9-8.4-0.6c-1.6,0.1-3.3,0.2-4.9,0.6c-2,0.5-4,1.1-5.8,2
	c-3.5,1.8-6.1,4.4-8,7.8c-1.5,2.6-2.3,5.5-2.9,8.5c-0.6,3.1-0.6,6.3-0.7,9.4c0,0.9,0,1.7,0,2.6c0,20.7,0,41.3,0,62
	c0,0.9-0.1,1.9-0.1,2.8c0,0.4-0.4,0.7-0.8,0.8c-0.3,0-0.6,0.1-0.9,0.1c-0.7,0-1.4,0-2.1,0c-10.6,0-21.1,0-31.7,0
	c-0.8,0-1.6-0.1-2.4-0.1c-0.3,0-0.6-0.4-0.6-0.6c0-0.3-0.1-0.6-0.1-0.9c0-0.7,0-1.4,0-2.1C1383.2,275.1,1383.2,254.4,1383.2,233.7z"
	/>
<path class="st0" d="M729.1,249.3c0,15.6,0,31.2,0,46.9c0,0.9,0,1.7-0.1,2.6c0,0.3-0.4,0.6-0.6,0.6c-0.2,0-0.5,0.1-0.7,0.1
	c-0.6,0-1.1,0-1.7,0c-10.8,0-21.6,0-32.4,0c-0.7,0-1.4-0.1-2.1-0.1c-0.3,0-0.6-0.3-0.6-0.6c0-0.3-0.1-0.6-0.1-0.9c0-0.8,0-1.6,0-2.4
	c0-30.9,0-61.9,0-92.8c0-0.9,0-1.9,0-2.8c0-0.9-0.4-1.2-1.3-1.3c-0.7,0-1.4,0-2.1,0c-5.7,0-11.4,0-17,0c-0.7,0-1.4,0-2.1,0
	c-1-0.1-1.3-0.4-1.3-1.3c0-0.5,0-0.9,0-1.4c0-8.4,0-16.9,0-25.3c0-0.6,0-1.3,0.1-1.9c0-0.4,0.4-0.7,0.8-0.7c0.7,0,1.4,0,2.1,0
	c6,0,12,0,18,0c3.1,0,3,0.2,3-2.9c0-11.8,0-23.5,0-35.3c0-3.1,0-6.2,0-9.2c0-0.3,0-0.6,0-0.9c0-1.9,0.2-2.1,2-2.1c0.4,0,0.8,0,1.2,0
	c10.7,0,21.3,0,32,0c0.8,0,1.6,0.1,2.4,0.1c0.4,0,0.7,0.4,0.8,0.8c0,0.8,0.1,1.6,0.1,2.4c0,9.8,0,19.6,0,29.3c0,5,0,10.1,0,15.1
	c0,2.8,0,2.8,2.7,2.8c7.3,0,14.5,0,21.8,0c0.7,0,1.4,0,2.1,0c0.6,0,1,0.4,1,1s0.1,1.1,0.1,1.7c0,8.4,0,16.7,0,25.1
	c0,0.6,0,1.3-0.1,1.9c0,0.5-0.4,0.9-0.9,0.9c-0.8,0-1.6,0.1-2.4,0.1c-6.9,0-13.9,0-20.8,0c-0.9,0-1.7,0-2.6,0.1
	c-0.5,0-0.9,0.4-0.9,0.9c0,0.9-0.1,1.7-0.1,2.6C729.1,217.9,729.1,233.6,729.1,249.3z"/>
<path class="st0" d="M1009.6,197.8c0-32.7,0-65.3,0-98c0-0.9,0-1.7,0-2.6c0-0.5,0.4-0.9,0.9-0.9c0.7,0,1.4-0.1,2.1-0.1
	c5,0,9.9,0,14.9,0c6,0,12,0,18,0c2.7,0,2.8-0.1,2.8,2.7c0,0.4,0,0.8,0,1.2c0,65.2,0,130.5,0,195.7c0,0.9,0,1.9-0.1,2.8
	c0,0.4-0.4,0.7-0.7,0.8c-0.4,0.1-0.8,0.1-1.2,0.1c-1,0-2.1,0-3.1,0c-10.2,0-20.4,0-30.5,0c-0.8,0-1.6-0.1-2.4-0.1
	c-0.3,0-0.6-0.4-0.7-0.6c0-0.2-0.1-0.5-0.1-0.7c0-0.8,0-1.6,0-2.4C1009.6,263.1,1009.6,230.5,1009.6,197.8z"/>
<path class="st0" d="M1693.2,233.7c0-20.7,0-41.5,0-62.2c0-0.9,0-1.7,0-2.6c0-0.7,0.3-0.9,1.1-1c0.4,0,0.8,0,1.2,0
	c11.4,0,22.7,0,34.1,0c0.5,0,1.1,0,1.6,0.1c0.3,0,0.6,0.3,0.6,0.6c0,0.8,0.1,1.6,0.1,2.4c0,8.3,0,16.6,0,24.8c0,0.8,0,1.6,0,2.4
	c0,0.3,0.2,0.6,0.4,0.5c0.2-0.1,0.4-0.3,0.5-0.5c0.3-0.7,0.5-1.5,0.7-2.2c1.7-5.1,4-9.9,7.1-14.3c2.7-3.8,5.8-7.1,9.5-9.8
	c4.2-3.1,8.8-5.3,13.9-6.2c2.8-0.5,5.6-0.8,8.5-0.4c0.8,0.1,1.6,0.2,2.4,0.2c5.2,0.3,10.1,1.5,14.9,3.6c0.2,0.1,0.4,0.2,0.6,0.3
	c1,0.5,1.2,0.8,1,1.8c-0.4,1.8-0.7,3.6-1.1,5.3c-1,5.2-2.1,10.4-3.1,15.5c-0.8,3.8-1.5,7.6-2.3,11.4c0,0.2-0.1,0.5-0.2,0.7
	c-0.1,0.3-0.5,0.5-0.7,0.4c-0.5-0.2-1-0.4-1.5-0.6c-3.2-1.3-6.4-2.1-9.8-2.5c-2.7-0.3-5.3-0.6-8-0.5c-3.1,0.1-6.1,0.4-9.1,1.3
	c-5.8,1.6-10.4,4.8-14,9.6c-1.9,2.5-3.4,5.3-4.6,8.2c-1.4,3.5-2.4,7.2-3.2,10.9c-0.7,3.4-1.2,6.8-1.4,10.3
	c-0.3,4.2-0.6,8.3-0.5,12.5c0,12.2,0,24.5,0,36.7c0,2.5,0,5,0,7.6c0,0.4-0.1,0.8-0.1,1.2c0,0.1-0.2,0.3-0.3,0.3
	c-0.2,0.1-0.4,0.2-0.7,0.2c-0.6,0-1.3,0-1.9,0c-10.9,0-21.8,0-32.7,0c-0.8,0-1.6-0.1-2.4-0.1c-0.3,0-0.6-0.4-0.6-0.6
	c0-0.9-0.1-1.7-0.1-2.6c0-16.5,0-33,0-49.5C1693.2,242.4,1693.2,238,1693.2,233.7z"/>
<path class="st0" d="M940.4,233.5c0-20.7,0-41.5,0-62.2c0-0.9,0-1.7,0.1-2.6c0-0.4,0.4-0.7,0.8-0.7c0.6,0,1.1,0,1.7,0
	c11.1,0,22.2,0,33.4,0c0.4,0,0.8,0,1.2,0c0.9,0,1.3,0.4,1.3,1.3c0,0.6,0,1.3,0,1.9c0,41.7,0,83.5,0,125.2c0,0.7,0,1.4,0,2.1
	s-0.4,1.1-1.2,1.1c-0.6,0-1.3,0-1.9,0c-10.7,0-21.5,0-32.2,0c-0.8,0-1.6-0.1-2.4-0.1c-0.3,0-0.6-0.4-0.6-0.6c0-0.3-0.1-0.6-0.1-0.9
	c0-0.7,0-1.4,0-2.1C940.4,275,940.4,254.2,940.4,233.5z"/>
<path class="st0" d="M959.6,96.2c5.2-0.1,10,1.4,14.2,4.4c4.8,3.4,7.9,8.1,9,13.9c1.8,8.8-2,17.9-9.4,23c-2.9,2-6.1,3.3-9.5,3.9
	c-2.2,0.4-4.5,0.4-6.8,0.2c-4.9-0.4-9.3-2.2-13.2-5.3s-6.5-7-7.9-11.8c-2.1-7.4,0.1-15.1,4.8-20.3c3.6-4,8.1-6.5,13.3-7.6
	C956.5,96.3,957.1,96.2,959.6,96.2z"/>
</svg>
